<?xml version="1.0" encoding="UTF-8"?>
<svg width="16px" height="19px" viewBox="0 0 16 19" version="1.1" xmlns="http://www.w3.org/2000/svg" xmlns:xlink="http://www.w3.org/1999/xlink">
    <!-- Generator: Sketch 42 (36781) - http://www.bohemiancoding.com/sketch -->
    <title>Profile</title>
    <desc>Created with Sketch.</desc>
    <defs></defs>
    <g id="COMMUNITY-DT-TB-MB" stroke="none" stroke-width="1" fill="none" fill-rule="evenodd">
        <g id="Artboard" transform="translate(-386.000000, -120.000000)" fill="#333333">
            <path d="M391.917943,129.960959 C390.936174,129.960959 389.98826,130.316427 389.074199,131.027363 C388.193994,131.772153 387.499985,132.669286 386.992173,133.718763 C386.484362,134.802093 386.230456,135.868497 386.230456,136.917974 L386.230456,138.695313 L401.769482,138.695313 L401.769482,136.917974 C401.769482,136.13933 401.617138,135.343759 401.312452,134.531261 C401.007765,133.718763 400.601516,132.957046 400.093704,132.24611 C399.585893,131.569028 398.97652,131.010436 398.265584,130.570333 C397.588502,130.164084 396.860639,129.960959 396.081995,129.960959 L391.917943,129.960959 Z M393.822235,128.894555 C395.024055,128.894555 396.031214,128.47138 396.843712,127.625027 C397.690065,126.778675 398.11324,125.77998 398.11324,124.628941 C398.11324,123.410193 397.690065,122.394571 396.843712,121.582073 C396.031214,120.769575 395.015592,120.363326 393.796844,120.363326 C392.611952,120.363326 391.613256,120.769575 390.800758,121.582073 C389.98826,122.394571 389.582011,123.40173 389.582011,124.60355 C389.582011,125.80537 390.005187,126.812529 390.851539,127.625027 C391.630183,128.47138 392.620415,128.894555 393.822235,128.894555 Z" id="Profile"></path>
        </g>
    </g>
</svg>